<svg width="35" height="16" viewBox="0 0 35 16" fill="none" xmlns="http://www.w3.org/2000/svg">
<rect width="35" height="16" rx="2" fill="#D80C18"/>
<path fill-rule="evenodd" clipRule="evenodd" d="M6.00299 13.0373L11.0272 7.64948C11.0568 7.6178 11.0343 7.56621 10.991 7.56621H8.66609L9.2264 3.00255C9.23229 2.95497 9.17387 2.9277 9.14126 2.96285L4.11687 8.35068C4.08746 8.38222 4.10978 8.43382 4.15309 8.43382H6.47816L5.91771 12.9976C5.91183 13.0451 5.97037 13.0723 6.00299 13.0373ZM19.2107 3.75671V12.1368H17.923V8.13831H17.1466V6.87547H17.923V3.75671H19.2107ZM15.0076 5.1059H15.7154L15.6989 10.2299L15.0242 10.2558L15.0076 5.1059ZM13.1218 10.3291V11.5156L17.5916 11.324V10.157L16.9776 10.1807L16.9939 5.1059H17.5253V3.91937H13.1977V5.1059H13.7292L13.7459 10.305L13.1218 10.3291ZM21.0291 12.2996H19.7226V3.70923H21.0291V12.2996ZM28.1314 12.2996H29.4764V3.70923H28.1314V12.2996ZM23.6048 5.76539C23.5481 5.97003 23.5103 6.22466 23.4915 6.53142C23.4661 6.90741 23.4532 7.29824 23.4532 7.70311C23.4532 8.10784 23.4661 8.49867 23.4915 8.8748C23.5103 9.18075 23.5481 9.43605 23.6048 9.64002C23.6616 9.84399 23.7373 10.0083 23.832 10.1328C23.9268 10.2574 24.0389 10.3463 24.1683 10.4007C24.2974 10.4551 24.4443 10.4817 24.6085 10.4817C24.7726 10.4817 24.9195 10.4551 25.0489 10.4007C25.1784 10.3463 25.2906 10.2574 25.3853 10.1328C25.4797 10.0083 25.5556 9.84399 25.6127 9.64002C25.6692 9.43605 25.7071 9.18075 25.7259 8.8748C25.7513 8.49867 25.7641 8.10944 25.7641 7.70779C25.7641 7.30599 25.7513 6.91356 25.7259 6.53142C25.7071 6.22466 25.6692 5.97003 25.6127 5.76539C25.5556 5.56129 25.4797 5.39702 25.3853 5.27325C25.2906 5.14867 25.1784 5.05912 25.0489 5.00539C24.9195 4.95098 24.7726 4.92372 24.6085 4.92372C24.4443 4.92372 24.2974 4.95098 24.1683 5.00539C24.0389 5.05912 23.9268 5.14867 23.832 5.27325C23.7373 5.39702 23.6616 5.56129 23.6048 5.76539ZM22.8757 11.0655C22.4336 10.6639 22.1906 10.0512 22.1465 9.229C22.134 8.955 22.1227 8.69342 22.1134 8.44427C22.1038 8.19592 22.0992 7.94838 22.0992 7.70311C22.0992 7.45784 22.1038 7.21029 22.1134 6.96114C22.1227 6.7128 22.134 6.45122 22.1465 6.17721C22.1906 5.35425 22.4336 4.74234 22.8757 4.34055C23.3176 3.93809 23.8953 3.73719 24.6085 3.73719C24.9622 3.73719 25.2859 3.78705 25.5795 3.88596C25.8727 3.98473 26.127 4.13591 26.3417 4.34055C26.5564 4.54452 26.7266 4.79914 26.853 5.1059C26.9794 5.41186 27.0518 5.76914 27.0707 6.17721C27.0834 6.45122 27.0926 6.7144 27.0993 6.96662C27.1054 7.21804 27.1088 7.46719 27.1088 7.71233C27.1088 7.9584 27.1054 8.20528 27.0993 8.45362C27.0926 8.70277 27.0834 8.96114 27.0707 9.229C27.0518 9.64323 26.9794 10.0021 26.853 10.3049C26.7266 10.6079 26.5564 10.8616 26.3417 11.0655C26.127 11.2695 25.8727 11.4213 25.5795 11.5203C25.2859 11.619 24.9622 11.6682 24.6085 11.6682C23.8953 11.6682 23.3176 11.4673 22.8757 11.0655Z" fill="white"/>
</svg>
