<svg xmlns="http://www.w3.org/2000/svg" width="24" height="24" viewBox="0 0 24 24">
    <g fill="none" fill-rule="evenodd">
        <g fill="#CCC">
            <g>
                <g>
                    <g>
                        <g>
                            <g>
                                <path d="M2.109 12.099h7.99v7.992c0 .552.45.999 1.001.999.552 0 .999-.447.999-1V12.1h7.99c.553 0 1.001-.447 1.001-1 0-.55-.448-.998-1-.998h-7.991V2.109c0-.552-.447-1-.999-1s-1 .448-1 1V10.1H2.109c-.552 0-.999.447-.999.999s.447.999.999.999" transform="translate(-131.000000, -700.000000) translate(20.000000, 189.000000) translate(0.000000, 434.000000) translate(0.000000, 52.000000) translate(86.000000, 0.000000) translate(25.900000, 25.900000)"/>
                            </g>
                        </g>
                    </g>
                </g>
            </g>
        </g>
    </g>
</svg>
