<svg xmlns="http://www.w3.org/2000/svg" width="16" height="16" viewBox="0 0 16 16">
    <g fill="none" fill-rule="evenodd">
        <g fill="#191919">
            <g>
                <g>
                    <path d="M7.192 12.93c-3.164 0-5.737-2.574-5.737-5.738 0-3.164 2.573-5.737 5.737-5.737 3.163 0 5.737 2.573 5.737 5.737s-2.574 5.737-5.737 5.737zm5.57-1.196c1.012-1.24 1.622-2.82 1.622-4.542C14.384 3.226 11.157 0 7.192 0 3.227 0 0 3.226 0 7.192s3.227 7.192 7.192 7.192c1.721 0 3.302-.61 4.541-1.622l3.025 3.025c.142.142.329.213.515.213.185 0 .372-.071.514-.213.284-.284.284-.745 0-1.028l-3.024-3.025z" transform="translate(-68.000000, -73.000000) translate(52.000000, 57.000000) translate(16.000000, 16.000000)"/>
                </g>
            </g>
        </g>
    </g>
</svg>
